# xmcd
#
# Track frame offsets:
#	150
#	10631
#	24705
#	36834
#	48767
#	61012
#	78456
#	100420
#	114727
#	133556
#	147476
#	164793
#	185638
#	199681
#	212735
#	230524
#
# Disc length: 3349 seconds
#
# Revision: 0
# Processed by: cddbd v1.5.2PL0 Copyright (c) Steve Scherf et al.
# Submitted via: EZCDAudioConverter 1.2.3.1
#
DISCID=e10d1310
DTITLE=Creedence Clearwater Revival - Forever - 36 Greatest Hits: Di
DYEAR=2007
DGENRE=Country Rock
TTITLE0=Bad Moon Rising
TTITLE1=Proud Mary
TTITLE2=Up Around The Bend
TTITLE3=Have You Ever Seen The Rain?
TTITLE4=Hey Tonight
TTITLE5=I Heard It Trough The Grapewin
TTITLE6=Wrote A Song For Everyone
TTITLE7=Lodi
TTITLE8=The Midnight Special
TTITLE9=Run Through The Jungle
TTITLE10=It's Just A Thought
TTITLE11=Walk On The Water
TTITLE12=Night Time Is The Right Time
TTITLE13=Cotton Fields
TTITLE14=Someday Never Comes
TTITLE15=Suzie Q
EXTD=
EXTT0=
EXTT1=
EXTT2=
EXTT3=
EXTT4=
EXTT5=
EXTT6=
EXTT7=
EXTT8=
EXTT9=
EXTT10=
EXTT11=
EXTT12=
EXTT13=
EXTT14=
EXTT15=
PLAYORDER=
